<mxfile host="app.diagrams.net" modified="2021-09-21T09:01:16.611Z" agent="5.0 (X11)" etag="FVkMfukDZg5K1rcMulDS" version="15.2.9" type="github">
  <diagram id="2_FfQMsW1cFgyMAnkCzO" name="Page-1">
    <mxGraphModel dx="1650" dy="782" grid="1" gridSize="10" guides="1" tooltips="1" connect="1" arrows="1" fold="1" page="1" pageScale="1" pageWidth="2339" pageHeight="3300" math="0" shadow="0">
      <root>
        <mxCell id="0" />
        <mxCell id="1" parent="0" />
        <mxCell id="0h0Oty9mdqbsD5uMdxxE-18" value="" style="group;shadow=1;" parent="1" vertex="1" connectable="0">
          <mxGeometry x="290" y="180" width="580" height="470" as="geometry" />
        </mxCell>
        <mxCell id="0h0Oty9mdqbsD5uMdxxE-1" value="fsm-infrastructure-14" style="rounded=0;whiteSpace=wrap;html=1;fillColor=#fff2cc;strokeColor=#d6b656;shadow=1;" parent="0h0Oty9mdqbsD5uMdxxE-18" vertex="1">
          <mxGeometry x="5" width="200" height="60" as="geometry" />
        </mxCell>
        <mxCell id="0h0Oty9mdqbsD5uMdxxE-3" value="workforce-management" style="swimlane;rounded=0;fillColor=#f5f5f5;strokeColor=#666666;fontColor=#333333;strokeWidth=3;shadow=0;" parent="0h0Oty9mdqbsD5uMdxxE-18" vertex="1">
          <mxGeometry y="100" width="580" height="370" as="geometry">
            <mxRectangle y="100" width="170" height="23" as="alternateBounds" />
          </mxGeometry>
        </mxCell>
        <mxCell id="0h0Oty9mdqbsD5uMdxxE-11" value="" style="edgeStyle=orthogonalEdgeStyle;rounded=0;orthogonalLoop=1;jettySize=auto;html=1;" parent="0h0Oty9mdqbsD5uMdxxE-3" source="0h0Oty9mdqbsD5uMdxxE-4" target="0h0Oty9mdqbsD5uMdxxE-5" edge="1">
          <mxGeometry relative="1" as="geometry" />
        </mxCell>
        <mxCell id="0h0Oty9mdqbsD5uMdxxE-4" value="wfm-frontend-installer" style="rounded=0;whiteSpace=wrap;html=1;fillColor=#fff2cc;strokeColor=#d6b656;shadow=1;" parent="0h0Oty9mdqbsD5uMdxxE-3" vertex="1">
          <mxGeometry x="30" y="70" width="150" height="60" as="geometry" />
        </mxCell>
        <mxCell id="0h0Oty9mdqbsD5uMdxxE-12" value="" style="edgeStyle=orthogonalEdgeStyle;rounded=0;orthogonalLoop=1;jettySize=auto;html=1;" parent="0h0Oty9mdqbsD5uMdxxE-3" source="0h0Oty9mdqbsD5uMdxxE-5" target="0h0Oty9mdqbsD5uMdxxE-6" edge="1">
          <mxGeometry relative="1" as="geometry" />
        </mxCell>
        <mxCell id="0h0Oty9mdqbsD5uMdxxE-5" value="wfm-frontend-builder" style="rounded=0;whiteSpace=wrap;html=1;fillColor=#fff2cc;strokeColor=#d6b656;shadow=1;" parent="0h0Oty9mdqbsD5uMdxxE-3" vertex="1">
          <mxGeometry x="30" y="170" width="150" height="60" as="geometry" />
        </mxCell>
        <mxCell id="0h0Oty9mdqbsD5uMdxxE-6" value="wfm-frontend" style="rounded=0;whiteSpace=wrap;html=1;fillColor=#d5e8d4;strokeColor=#82b366;shadow=1;" parent="0h0Oty9mdqbsD5uMdxxE-3" vertex="1">
          <mxGeometry x="30" y="260" width="150" height="60" as="geometry" />
        </mxCell>
        <mxCell id="0h0Oty9mdqbsD5uMdxxE-7" value="wfm-frontend-dev" style="rounded=0;whiteSpace=wrap;html=1;fillColor=#d5e8d4;strokeColor=#82b366;shadow=1;" parent="0h0Oty9mdqbsD5uMdxxE-3" vertex="1">
          <mxGeometry x="210" y="259" width="150" height="60" as="geometry" />
        </mxCell>
        <mxCell id="0h0Oty9mdqbsD5uMdxxE-13" value="" style="endArrow=classic;html=1;exitX=1;exitY=0.5;exitDx=0;exitDy=0;entryX=0.5;entryY=0;entryDx=0;entryDy=0;" parent="0h0Oty9mdqbsD5uMdxxE-3" source="0h0Oty9mdqbsD5uMdxxE-4" target="0h0Oty9mdqbsD5uMdxxE-7" edge="1">
          <mxGeometry width="50" height="50" relative="1" as="geometry">
            <mxPoint x="270" y="290" as="sourcePoint" />
            <mxPoint x="320" y="240" as="targetPoint" />
            <Array as="points">
              <mxPoint x="285" y="100" />
            </Array>
          </mxGeometry>
        </mxCell>
        <mxCell id="0h0Oty9mdqbsD5uMdxxE-14" value="wfm-backend-installer" style="rounded=0;whiteSpace=wrap;html=1;fillColor=#fff2cc;strokeColor=#d6b656;shadow=1;" parent="0h0Oty9mdqbsD5uMdxxE-3" vertex="1">
          <mxGeometry x="400" y="70" width="150" height="60" as="geometry" />
        </mxCell>
        <mxCell id="0h0Oty9mdqbsD5uMdxxE-16" value="wfm-backend" style="rounded=0;whiteSpace=wrap;html=1;fillColor=#d5e8d4;strokeColor=#82b366;shadow=1;" parent="0h0Oty9mdqbsD5uMdxxE-3" vertex="1">
          <mxGeometry x="400" y="260" width="150" height="60" as="geometry" />
        </mxCell>
        <mxCell id="0h0Oty9mdqbsD5uMdxxE-17" value="" style="endArrow=classic;html=1;exitX=0.5;exitY=1;exitDx=0;exitDy=0;entryX=0.5;entryY=0;entryDx=0;entryDy=0;" parent="0h0Oty9mdqbsD5uMdxxE-3" source="0h0Oty9mdqbsD5uMdxxE-14" target="0h0Oty9mdqbsD5uMdxxE-16" edge="1">
          <mxGeometry width="50" height="50" relative="1" as="geometry">
            <mxPoint x="270" y="290" as="sourcePoint" />
            <mxPoint x="320" y="240" as="targetPoint" />
          </mxGeometry>
        </mxCell>
        <mxCell id="0h0Oty9mdqbsD5uMdxxE-9" value="" style="endArrow=classic;html=1;exitX=0.495;exitY=1;exitDx=0;exitDy=0;exitPerimeter=0;" parent="0h0Oty9mdqbsD5uMdxxE-18" source="0h0Oty9mdqbsD5uMdxxE-1" target="0h0Oty9mdqbsD5uMdxxE-4" edge="1">
          <mxGeometry width="50" height="50" relative="1" as="geometry">
            <mxPoint x="100" y="70" as="sourcePoint" />
            <mxPoint x="99" y="170" as="targetPoint" />
          </mxGeometry>
        </mxCell>
        <mxCell id="0h0Oty9mdqbsD5uMdxxE-15" value="" style="endArrow=classic;html=1;exitX=1;exitY=0.5;exitDx=0;exitDy=0;entryX=0.5;entryY=0;entryDx=0;entryDy=0;" parent="0h0Oty9mdqbsD5uMdxxE-18" source="0h0Oty9mdqbsD5uMdxxE-1" target="0h0Oty9mdqbsD5uMdxxE-14" edge="1">
          <mxGeometry width="50" height="50" relative="1" as="geometry">
            <mxPoint x="270" y="390" as="sourcePoint" />
            <mxPoint x="320" y="340" as="targetPoint" />
            <Array as="points">
              <mxPoint x="475" y="30" />
            </Array>
          </mxGeometry>
        </mxCell>
        <mxCell id="0h0Oty9mdqbsD5uMdxxE-19" value="node:14" style="rounded=0;whiteSpace=wrap;html=1;fillColor=#f5f5f5;strokeColor=#666666;fontColor=#333333;shadow=1;" parent="1" vertex="1">
          <mxGeometry x="295" y="40" width="200" height="60" as="geometry" />
        </mxCell>
        <mxCell id="0h0Oty9mdqbsD5uMdxxE-20" value="nginx:alpine" style="rounded=0;whiteSpace=wrap;html=1;fillColor=#f5f5f5;strokeColor=#666666;fontColor=#333333;shadow=1;" parent="1" vertex="1">
          <mxGeometry x="60" y="40" width="200" height="60" as="geometry" />
        </mxCell>
        <mxCell id="0h0Oty9mdqbsD5uMdxxE-21" value="" style="endArrow=classic;html=1;exitX=0.5;exitY=1;exitDx=0;exitDy=0;" parent="1" source="0h0Oty9mdqbsD5uMdxxE-19" target="0h0Oty9mdqbsD5uMdxxE-1" edge="1">
          <mxGeometry width="50" height="50" relative="1" as="geometry">
            <mxPoint x="495" y="410" as="sourcePoint" />
            <mxPoint x="545" y="360" as="targetPoint" />
          </mxGeometry>
        </mxCell>
        <mxCell id="0h0Oty9mdqbsD5uMdxxE-22" value="" style="endArrow=classic;html=1;exitX=0.5;exitY=1;exitDx=0;exitDy=0;entryX=0;entryY=0.667;entryDx=0;entryDy=0;entryPerimeter=0;" parent="1" source="0h0Oty9mdqbsD5uMdxxE-20" target="0h0Oty9mdqbsD5uMdxxE-6" edge="1">
          <mxGeometry width="50" height="50" relative="1" as="geometry">
            <mxPoint x="490" y="410" as="sourcePoint" />
            <mxPoint x="540" y="360" as="targetPoint" />
            <Array as="points">
              <mxPoint x="160" y="580" />
            </Array>
          </mxGeometry>
        </mxCell>
        <mxCell id="0h0Oty9mdqbsD5uMdxxE-23" value="shell" style="swimlane;rounded=0;fillColor=#f5f5f5;strokeColor=#666666;fontColor=#333333;strokeWidth=3;" parent="1" vertex="1">
          <mxGeometry x="910" y="280" width="580" height="370" as="geometry">
            <mxRectangle y="100" width="170" height="23" as="alternateBounds" />
          </mxGeometry>
        </mxCell>
        <mxCell id="0h0Oty9mdqbsD5uMdxxE-24" value="" style="edgeStyle=orthogonalEdgeStyle;rounded=0;orthogonalLoop=1;jettySize=auto;html=1;" parent="0h0Oty9mdqbsD5uMdxxE-23" source="0h0Oty9mdqbsD5uMdxxE-25" target="0h0Oty9mdqbsD5uMdxxE-27" edge="1">
          <mxGeometry relative="1" as="geometry" />
        </mxCell>
        <mxCell id="0h0Oty9mdqbsD5uMdxxE-25" value="shell-frontend-installer" style="rounded=0;whiteSpace=wrap;html=1;fillColor=#fff2cc;strokeColor=#d6b656;shadow=1;" parent="0h0Oty9mdqbsD5uMdxxE-23" vertex="1">
          <mxGeometry x="30" y="70" width="150" height="60" as="geometry" />
        </mxCell>
        <mxCell id="0h0Oty9mdqbsD5uMdxxE-26" value="" style="edgeStyle=orthogonalEdgeStyle;rounded=0;orthogonalLoop=1;jettySize=auto;html=1;" parent="0h0Oty9mdqbsD5uMdxxE-23" source="0h0Oty9mdqbsD5uMdxxE-27" target="0h0Oty9mdqbsD5uMdxxE-28" edge="1">
          <mxGeometry relative="1" as="geometry" />
        </mxCell>
        <mxCell id="0h0Oty9mdqbsD5uMdxxE-27" value="shell-frontend-builder" style="rounded=0;whiteSpace=wrap;html=1;fillColor=#fff2cc;strokeColor=#d6b656;shadow=1;" parent="0h0Oty9mdqbsD5uMdxxE-23" vertex="1">
          <mxGeometry x="30" y="170" width="150" height="60" as="geometry" />
        </mxCell>
        <mxCell id="0h0Oty9mdqbsD5uMdxxE-28" value="shell-frontend" style="rounded=0;whiteSpace=wrap;html=1;fillColor=#d5e8d4;strokeColor=#82b366;shadow=1;" parent="0h0Oty9mdqbsD5uMdxxE-23" vertex="1">
          <mxGeometry x="30" y="260" width="150" height="60" as="geometry" />
        </mxCell>
        <mxCell id="0h0Oty9mdqbsD5uMdxxE-29" value="shell-frontend-dev" style="rounded=0;whiteSpace=wrap;html=1;fillColor=#d5e8d4;strokeColor=#82b366;shadow=1;" parent="0h0Oty9mdqbsD5uMdxxE-23" vertex="1">
          <mxGeometry x="210" y="259" width="150" height="60" as="geometry" />
        </mxCell>
        <mxCell id="0h0Oty9mdqbsD5uMdxxE-30" value="" style="endArrow=classic;html=1;exitX=1;exitY=0.5;exitDx=0;exitDy=0;entryX=0.5;entryY=0;entryDx=0;entryDy=0;" parent="0h0Oty9mdqbsD5uMdxxE-23" source="0h0Oty9mdqbsD5uMdxxE-25" target="0h0Oty9mdqbsD5uMdxxE-29" edge="1">
          <mxGeometry width="50" height="50" relative="1" as="geometry">
            <mxPoint x="270" y="290" as="sourcePoint" />
            <mxPoint x="320" y="240" as="targetPoint" />
            <Array as="points">
              <mxPoint x="285" y="100" />
            </Array>
          </mxGeometry>
        </mxCell>
        <mxCell id="0h0Oty9mdqbsD5uMdxxE-31" value="shell-backend-installer" style="rounded=0;whiteSpace=wrap;html=1;fillColor=#fff2cc;strokeColor=#d6b656;shadow=1;" parent="0h0Oty9mdqbsD5uMdxxE-23" vertex="1">
          <mxGeometry x="400" y="70" width="150" height="60" as="geometry" />
        </mxCell>
        <mxCell id="0h0Oty9mdqbsD5uMdxxE-32" value="shell-backend" style="rounded=0;whiteSpace=wrap;html=1;fillColor=#d5e8d4;strokeColor=#82b366;shadow=1;" parent="0h0Oty9mdqbsD5uMdxxE-23" vertex="1">
          <mxGeometry x="400" y="260" width="150" height="60" as="geometry" />
        </mxCell>
        <mxCell id="0h0Oty9mdqbsD5uMdxxE-33" value="" style="endArrow=classic;html=1;exitX=0.5;exitY=1;exitDx=0;exitDy=0;entryX=0.5;entryY=0;entryDx=0;entryDy=0;" parent="0h0Oty9mdqbsD5uMdxxE-23" source="0h0Oty9mdqbsD5uMdxxE-31" target="0h0Oty9mdqbsD5uMdxxE-32" edge="1">
          <mxGeometry width="50" height="50" relative="1" as="geometry">
            <mxPoint x="270" y="290" as="sourcePoint" />
            <mxPoint x="320" y="240" as="targetPoint" />
          </mxGeometry>
        </mxCell>
        <mxCell id="0h0Oty9mdqbsD5uMdxxE-34" value="" style="endArrow=classic;html=1;exitX=1;exitY=0.5;exitDx=0;exitDy=0;entryX=0.46;entryY=-0.017;entryDx=0;entryDy=0;entryPerimeter=0;" parent="1" source="0h0Oty9mdqbsD5uMdxxE-1" target="0h0Oty9mdqbsD5uMdxxE-25" edge="1">
          <mxGeometry width="50" height="50" relative="1" as="geometry">
            <mxPoint x="790" y="410" as="sourcePoint" />
            <mxPoint x="840" y="360" as="targetPoint" />
            <Array as="points">
              <mxPoint x="1009" y="210" />
            </Array>
          </mxGeometry>
        </mxCell>
        <mxCell id="0h0Oty9mdqbsD5uMdxxE-35" value="" style="endArrow=classic;html=1;exitX=1;exitY=0.5;exitDx=0;exitDy=0;entryX=0.5;entryY=0;entryDx=0;entryDy=0;" parent="1" source="0h0Oty9mdqbsD5uMdxxE-1" target="0h0Oty9mdqbsD5uMdxxE-31" edge="1">
          <mxGeometry width="50" height="50" relative="1" as="geometry">
            <mxPoint x="790" y="410" as="sourcePoint" />
            <mxPoint x="840" y="360" as="targetPoint" />
            <Array as="points">
              <mxPoint x="1385" y="210" />
            </Array>
          </mxGeometry>
        </mxCell>
        <mxCell id="0h0Oty9mdqbsD5uMdxxE-36" value="" style="endArrow=classic;html=1;exitX=0.5;exitY=1;exitDx=0;exitDy=0;entryX=0;entryY=0.5;entryDx=0;entryDy=0;shadow=0;" parent="1" source="0h0Oty9mdqbsD5uMdxxE-20" target="0h0Oty9mdqbsD5uMdxxE-28" edge="1">
          <mxGeometry width="50" height="50" relative="1" as="geometry">
            <mxPoint x="790" y="410" as="sourcePoint" />
            <mxPoint x="840" y="360" as="targetPoint" />
            <Array as="points">
              <mxPoint x="160" y="580" />
              <mxPoint x="160" y="690" />
              <mxPoint x="890" y="690" />
              <mxPoint x="890" y="570" />
            </Array>
          </mxGeometry>
        </mxCell>
        <mxCell id="UgdI3fjJ6AFyHlubDHsa-1" value="service call" style="swimlane;rounded=0;fillColor=#f5f5f5;strokeColor=#666666;fontColor=#333333;strokeWidth=3;" vertex="1" parent="1">
          <mxGeometry x="1531" y="280" width="580" height="370" as="geometry">
            <mxRectangle y="100" width="170" height="23" as="alternateBounds" />
          </mxGeometry>
        </mxCell>
        <mxCell id="UgdI3fjJ6AFyHlubDHsa-2" value="" style="edgeStyle=orthogonalEdgeStyle;rounded=0;orthogonalLoop=1;jettySize=auto;html=1;" edge="1" parent="UgdI3fjJ6AFyHlubDHsa-1" source="UgdI3fjJ6AFyHlubDHsa-3" target="UgdI3fjJ6AFyHlubDHsa-5">
          <mxGeometry relative="1" as="geometry" />
        </mxCell>
        <mxCell id="UgdI3fjJ6AFyHlubDHsa-3" value="sc-frontend-installer" style="rounded=0;whiteSpace=wrap;html=1;fillColor=#fff2cc;strokeColor=#d6b656;shadow=1;" vertex="1" parent="UgdI3fjJ6AFyHlubDHsa-1">
          <mxGeometry x="30" y="70" width="150" height="60" as="geometry" />
        </mxCell>
        <mxCell id="UgdI3fjJ6AFyHlubDHsa-4" value="" style="edgeStyle=orthogonalEdgeStyle;rounded=0;orthogonalLoop=1;jettySize=auto;html=1;" edge="1" parent="UgdI3fjJ6AFyHlubDHsa-1" source="UgdI3fjJ6AFyHlubDHsa-5" target="UgdI3fjJ6AFyHlubDHsa-6">
          <mxGeometry relative="1" as="geometry" />
        </mxCell>
        <mxCell id="UgdI3fjJ6AFyHlubDHsa-5" value="sc-frontend-builder" style="rounded=0;whiteSpace=wrap;html=1;fillColor=#fff2cc;strokeColor=#d6b656;shadow=1;" vertex="1" parent="UgdI3fjJ6AFyHlubDHsa-1">
          <mxGeometry x="30" y="170" width="150" height="60" as="geometry" />
        </mxCell>
        <mxCell id="UgdI3fjJ6AFyHlubDHsa-6" value="sc-frontend" style="rounded=0;whiteSpace=wrap;html=1;fillColor=#d5e8d4;strokeColor=#82b366;shadow=1;" vertex="1" parent="UgdI3fjJ6AFyHlubDHsa-1">
          <mxGeometry x="30" y="260" width="150" height="60" as="geometry" />
        </mxCell>
        <mxCell id="UgdI3fjJ6AFyHlubDHsa-9" value="sc-backend-installer" style="rounded=0;whiteSpace=wrap;html=1;fillColor=#fff2cc;strokeColor=#d6b656;shadow=1;" vertex="1" parent="UgdI3fjJ6AFyHlubDHsa-1">
          <mxGeometry x="400" y="70" width="150" height="60" as="geometry" />
        </mxCell>
        <mxCell id="UgdI3fjJ6AFyHlubDHsa-10" value="sc-backend" style="rounded=0;whiteSpace=wrap;html=1;fillColor=#d5e8d4;strokeColor=#82b366;shadow=1;" vertex="1" parent="UgdI3fjJ6AFyHlubDHsa-1">
          <mxGeometry x="400" y="260" width="150" height="60" as="geometry" />
        </mxCell>
        <mxCell id="UgdI3fjJ6AFyHlubDHsa-11" value="" style="endArrow=classic;html=1;exitX=0.5;exitY=1;exitDx=0;exitDy=0;entryX=0.5;entryY=0;entryDx=0;entryDy=0;" edge="1" parent="UgdI3fjJ6AFyHlubDHsa-1" source="UgdI3fjJ6AFyHlubDHsa-9" target="UgdI3fjJ6AFyHlubDHsa-10">
          <mxGeometry width="50" height="50" relative="1" as="geometry">
            <mxPoint x="270" y="290" as="sourcePoint" />
            <mxPoint x="320" y="240" as="targetPoint" />
          </mxGeometry>
        </mxCell>
        <mxCell id="UgdI3fjJ6AFyHlubDHsa-16" value="" style="endArrow=classic;html=1;exitX=1;exitY=0.5;exitDx=0;exitDy=0;entryX=0.5;entryY=0;entryDx=0;entryDy=0;" edge="1" parent="1" source="0h0Oty9mdqbsD5uMdxxE-1" target="UgdI3fjJ6AFyHlubDHsa-3">
          <mxGeometry width="50" height="50" relative="1" as="geometry">
            <mxPoint x="1250" y="430" as="sourcePoint" />
            <mxPoint x="1300" y="380" as="targetPoint" />
            <Array as="points">
              <mxPoint x="1636" y="210" />
            </Array>
          </mxGeometry>
        </mxCell>
        <mxCell id="UgdI3fjJ6AFyHlubDHsa-17" value="" style="endArrow=classic;html=1;exitX=1;exitY=0.5;exitDx=0;exitDy=0;entryX=0.5;entryY=0;entryDx=0;entryDy=0;" edge="1" parent="1" source="0h0Oty9mdqbsD5uMdxxE-1" target="UgdI3fjJ6AFyHlubDHsa-9">
          <mxGeometry width="50" height="50" relative="1" as="geometry">
            <mxPoint x="1250" y="430" as="sourcePoint" />
            <mxPoint x="1300" y="380" as="targetPoint" />
            <Array as="points">
              <mxPoint x="2006" y="210" />
            </Array>
          </mxGeometry>
        </mxCell>
        <mxCell id="UgdI3fjJ6AFyHlubDHsa-19" value="" style="endArrow=classic;html=1;entryX=0;entryY=0.5;entryDx=0;entryDy=0;exitX=0.5;exitY=1;exitDx=0;exitDy=0;" edge="1" parent="1" source="0h0Oty9mdqbsD5uMdxxE-20" target="UgdI3fjJ6AFyHlubDHsa-6">
          <mxGeometry width="50" height="50" relative="1" as="geometry">
            <mxPoint x="700" y="430" as="sourcePoint" />
            <mxPoint x="750" y="380" as="targetPoint" />
            <Array as="points">
              <mxPoint x="160" y="690" />
              <mxPoint x="1510" y="690" />
              <mxPoint x="1510" y="570" />
            </Array>
          </mxGeometry>
        </mxCell>
      </root>
    </mxGraphModel>
  </diagram>
</mxfile>
